<svg xmlns="http://www.w3.org/2000/svg" xmlns:xlink="http://www.w3.org/1999/xlink" version="1.1" x="0px" y="0px" viewBox="0 0 100 125" style="enable-background:new 0 0 100 100;" xml:space="preserve"><path d="M79.2,37H61V18.8c0-3.3-2.6-5.8-6-5.8H42.9c-3.3,0-5.9,2.4-5.9,5.8V37H18.7c-3.3,0-5.7,2.5-5.7,5.9V55c0,3.3,2.3,6,5.7,6H37  v18.3c0,3.3,2.6,5.7,5.9,5.7H55c3.3,0,6-2.4,6-5.7V61h18.2c3.3,0,5.8-2.7,5.8-6V42.9C85,39.5,82.5,37,79.2,37z M49,55.2  c-3.4,0-6.2-2.8-6.2-6.2c0-3.4,2.8-6.2,6.2-6.2c3.4,0,6.2,2.8,6.2,6.2C55.2,52.4,52.4,55.2,49,55.2z"/><text x="0" y="115" fill="#000000" font-size="5px" font-weight="bold" font-family="'Helvetica Neue', Helvetica, Arial-Unicode, Arial, Sans-serif"></text><text x="0" y="120" fill="#000000" font-size="5px" font-weight="bold" font-family="'Helvetica Neue', Helvetica, Arial-Unicode, Arial, Sans-serif"></text></svg>